<svg width="226" height="226" viewBox="0 0 226 226" fill="none" xmlns="http://www.w3.org/2000/svg">
<path d="M26.6667 224H199.333C212.956 224 224 212.956 224 199.333V26.6667C224 13.0436 212.956 2 199.333 2H26.6667C13.0436 2 2 13.0436 2 26.6667V199.333C2 212.956 13.0436 224 26.6667 224ZM26.6667 224L162.333 88.3333L224 150M88.3333 69.8333C88.3333 80.0506 80.0506 88.3333 69.8333 88.3333C59.6161 88.3333 51.3333 80.0506 51.3333 69.8333C51.3333 59.6161 59.6161 51.3333 69.8333 51.3333C80.0506 51.3333 88.3333 59.6161 88.3333 69.8333Z" stroke="#F3F3F3" stroke-width="4" stroke-linecap="round" stroke-linejoin="round"/>
</svg>
