<svg xmlns="http://www.w3.org/2000/svg" viewBox="0 0 82.17 52.38"><defs><style>.cls-1{isolation:isolate;}.cls-2,.cls-3{fill:#fff;}.cls-3{mix-blend-mode:screen;}</style></defs><title>Fichier 1@Ai</title><g class="cls-1"><g id="Calque_2" data-name="Calque 2"><g id="Calque_1-2" data-name="Calque 1"><path class="cls-2" d="M82.17,24.24,82,25.1H51.59l-1-.06A7.89,7.89,0,0,1,43,16.19l.08-1,.53-3.66H69.06L67.23,24.24Z"/><path class="cls-3" d="M67,26l-.89,6.18a10.27,10.27,0,0,1-9.84,8.6H40.31L38.64,52.38h-.86l2.38-16.54.19-1A11.27,11.27,0,0,1,50.48,26l1-.06Z"/><path class="cls-2" d="M44.46,0,42.27,15.21l-.2,1A11.27,11.27,0,0,1,32,25l-1,.06H15.23l.71-4.94a10.29,10.29,0,0,1,9.84-8.61H41.94L43.6,0Z"/><path class="cls-2" d="M39.3,35.84l-.7,4.89H13L15,26.8H0L.12,26H30.84l1,.06a7.88,7.88,0,0,1,7.58,8.85Z"/></g></g></g></svg>