<?xml version="1.0" encoding="utf-8"?>
<!-- Generator: Adobe Illustrator 24.0.1, SVG Export Plug-In . SVG Version: 6.00 Build 0)  -->
<svg version="1.1" id="Calque_1" xmlns="http://www.w3.org/2000/svg" xmlns:xlink="http://www.w3.org/1999/xlink" x="0px" y="0px"
	 viewBox="0 0 800 800" style="enable-background:new 0 0 800 800;" xml:space="preserve">
<style type="text/css">
	.st0{stroke-width:50;stroke-linecap:round;stroke-linejoin:round;stroke-miterlimit:133.3333;}
</style>
<path class="st0" d="M233.3,700c0,0,50-33.3,166.7-33.3 M400,666.7c116.7,0,166.7,33.3,166.7,33.3 M400,666.7v-100 M206.7,566.7
	h386.7c37.3,0,56,0,70.3-7.3c12.5-6.4,22.7-16.6,29.1-29.1C700,516,700,497.3,700,460V206.7c0-37.3,0-56-7.3-70.3
	c-6.4-12.5-16.6-22.7-29.1-29.1c-14.3-7.3-32.9-7.3-70.3-7.3H206.7c-37.3,0-56,0-70.3,7.3c-12.5,6.4-22.7,16.6-29.1,29.1
	c-7.3,14.3-7.3,32.9-7.3,70.3V460c0,37.3,0,56,7.3,70.3c6.4,12.5,16.6,22.7,29.1,29.1C150.7,566.7,169.3,566.7,206.7,566.7z"/>
</svg>
