<?xml version="1.0" encoding="utf-8"?>
<!-- Generator: Adobe Illustrator 24.0.1, SVG Export Plug-In . SVG Version: 6.00 Build 0)  -->
<svg version="1.1" id="Calque_1" xmlns="http://www.w3.org/2000/svg" xmlns:xlink="http://www.w3.org/1999/xlink" x="0px" y="0px"
	 viewBox="0 0 800 800" style="enable-background:new 0 0 800 800;" xml:space="preserve">
<style type="text/css">
	.st0{stroke-width:50;stroke-linecap:round;stroke-linejoin:round;stroke-miterlimit:133.3333;}
</style>
<path class="st0" d="M233.3,334.3c15.7-1,35.1-1,60-1h213.3c24.9,0,44.3,0,60,1 M233.3,334.3c-19.6,1.2-33.5,3.9-45.4,9.9
	c-18.8,9.6-34.1,24.9-43.7,43.7c-10.9,21.4-10.9,49.4-10.9,105.4V540c0,56,0,84,10.9,105.4c9.6,18.8,24.9,34.1,43.7,43.7
	C209.3,700,237.3,700,293.3,700h213.3c56,0,84,0,105.4-10.9c18.8-9.6,34.1-24.9,43.7-43.7C666.7,624,666.7,596,666.7,540v-46.7
	c0-56,0-84-10.9-105.4c-9.6-18.8-24.9-34.1-43.7-43.7c-11.9-6-25.8-8.7-45.4-9.9 M233.3,334.3v-67.6c0-92,74.6-166.7,166.7-166.7
	c92,0,166.7,74.6,166.7,166.7v67.6"/>
</svg>
