<?xml version="1.0" encoding="utf-8"?>
<!-- Generator: Adobe Illustrator 24.0.1, SVG Export Plug-In . SVG Version: 6.00 Build 0)  -->
<svg version="1.1" id="Calque_1" xmlns="http://www.w3.org/2000/svg" xmlns:xlink="http://www.w3.org/1999/xlink" x="0px" y="0px"
	 viewBox="0 0 800 800" style="enable-background:new 0 0 800 800;" xml:space="preserve">
<style type="text/css">
	.st0{;stroke-width:50;stroke-linecap:round;stroke-linejoin:round;stroke-miterlimit:133.3333;}
</style>
<g id="SVGRepo_bgCarrier">
</g>
<g id="SVGRepo_tracerCarrier">
</g>
<g id="SVGRepo_iconCarrier">
	<path class="st0" d="M133.3,233.3h533.3 M166.7,133.3h466.7 M229.9,666.7h340.3c34.1,0,51.2,0,64.7-6.4
		c11.9-5.6,21.9-14.7,28.7-25.9c7.7-12.8,9.4-29.8,12.8-63.7l14.9-149.3c3-30.5,4.6-45.7-0.4-57.5c-4.4-10.3-12.1-18.9-22-24.3
		c-11.2-6.1-26.5-6.1-57.2-6.1H188.4c-30.6,0-45.9,0-57.2,6.1c-9.9,5.4-17.6,14-22,24.3c-5,11.8-3.5,27-0.4,57.5l14.9,149.3
		c3.4,33.9,5.1,50.9,12.8,63.7c6.8,11.3,16.8,20.3,28.7,25.9C178.7,666.7,195.8,666.7,229.9,666.7z M500,500
		c0,36.8-44.8,66.7-100,66.7c-55.2,0-100-29.8-100-66.7c0-36.8,44.8-66.7,100-66.7C455.2,433.3,500,463.2,500,500z"/>
</g>
</svg>