<?xml version="1.0" encoding="utf-8"?>
<!-- Generator: Adobe Illustrator 24.0.1, SVG Export Plug-In . SVG Version: 6.00 Build 0)  -->
<svg version="1.1" id="Calque_1" xmlns="http://www.w3.org/2000/svg" xmlns:xlink="http://www.w3.org/1999/xlink" x="0px" y="0px"
	 viewBox="0 0 800 800" style="enable-background:new 0 0 800 800;" xml:space="preserve">
<style type="text/css">
	.st0{stroke-width:50;stroke-linecap:round;stroke-linejoin:round;stroke-miterlimit:133.3333;}
</style>
<path class="st0" d="M233.3,143v523.7 M566.7,135v528 M100,266.7h133.3 M566.7,266.7H700 M100,533.3h133.3 M566.7,533.3H700
	 M100,400h600 M206.7,666.7h386.7c37.3,0,56,0,70.3-7.3c12.5-6.4,22.7-16.6,29.1-29.1C700,616,700,597.3,700,560V240
	c0-37.3,0-56-7.3-70.3c-6.4-12.5-16.6-22.7-29.1-29.1c-14.3-7.3-32.9-7.3-70.3-7.3H206.7c-37.3,0-56,0-70.3,7.3
	c-12.5,6.4-22.7,16.6-29.1,29.1C100,184,100,202.7,100,240v320c0,37.3,0,56,7.3,70.3c6.4,12.5,16.6,22.7,29.1,29.1
	C150.7,666.7,169.3,666.7,206.7,666.7z"/>
</svg>
