<?xml version="1.0" encoding="utf-8"?>
<!-- Generator: Adobe Illustrator 24.0.1, SVG Export Plug-In . SVG Version: 6.00 Build 0)  -->
<svg version="1.1" id="Calque_1" xmlns="http://www.w3.org/2000/svg" xmlns:xlink="http://www.w3.org/1999/xlink" x="0px" y="0px"
	 viewBox="0 0 800 800" style="enable-background:new 0 0 800 800;" xml:space="preserve">
<style type="text/css">
	.st0{stroke-width:50;stroke-linecap:round;stroke-linejoin:round;stroke-miterlimit:133.3333;}
</style>
<path class="st0" d="M625.4,459.8l42.2,74.3c-5,9.8-10.6,19.4-16.8,28.8c-6.2,9.4-12.8,18.3-19.9,26.8l-83-9.3
	c-22.2,18.2-47.8,32.4-75.8,41.5l-38.8,76.2c-10.9,1.2-22.1,1.8-33.3,1.8s-22.4-0.6-33.3-1.8l-38.9-76.2
	c-28-9.1-53.6-23.3-75.8-41.6l-83.5,9.3c-7-8.5-13.7-17.4-19.9-26.8c-6.2-9.4-11.8-19-16.8-28.8l42.4-74.7
	c-4.9-18.9-7.5-38.9-7.5-59.4c0-20.8,2.7-41,7.9-60.3l-42.7-75.2c5-9.8,10.6-19.4,16.8-28.8c6.2-9.4,12.8-18.3,19.9-26.8l85.2,9.6
	c21.9-17.8,46.9-31.5,74.4-40.4 M327.9,178l38.8-76.2c10.9-1.2,22.1-1.8,33.3-1.8c11.3,0,22.4,0.6,33.3,1.8l38.8,76.2
	c27.5,8.9,52.5,22.6,74.5,40.4l84.3-9.5c7,8.5,13.7,17.4,19.9,26.8c6.2,9.4,11.8,19,16.8,28.8L625.3,339 M625.3,339.1
	c5.2,19.4,8,39.8,8,60.9c0,20.7-2.7,40.8-7.8,59.9 M500,400c0,55.2-44.8,100-100,100s-100-44.8-100-100c0-55.2,44.8-100,100-100
	S500,344.8,500,400z"/>
</svg>
