<svg width="30" height="62" viewBox="0 0 30 62" fill="none" xmlns="http://www.w3.org/2000/svg">
<path d="M15 19V5M15 5L8 12M15 5L22 12" stroke="#F5F5F5" stroke-width="2.5" stroke-linecap="round" stroke-linejoin="round"/>
<path d="M15 43L15 57M15 57L22 50M15 57L8 50" stroke="#F5F5F5" stroke-width="2.5" stroke-linecap="round" stroke-linejoin="round"/>
<path d="M0.7 31C0.7 29.6267 1.00667 28.4 1.62 27.32C2.24667 26.2267 3.09333 25.38 4.16 24.78C5.24 24.1667 6.44667 23.86 7.78 23.86C9.34 23.86 10.7067 24.26 11.88 25.06C13.0533 25.86 13.8733 26.9667 14.34 28.38H11.12C10.8 27.7133 10.3467 27.2133 9.76 26.88C9.18667 26.5467 8.52 26.38 7.76 26.38C6.94667 26.38 6.22 26.5733 5.58 26.96C4.95333 27.3333 4.46 27.8667 4.1 28.56C3.75333 29.2533 3.58 30.0667 3.58 31C3.58 31.92 3.75333 32.7333 4.1 33.44C4.46 34.1333 4.95333 34.6733 5.58 35.06C6.22 35.4333 6.94667 35.62 7.76 35.62C8.52 35.62 9.18667 35.4533 9.76 35.12C10.3467 34.7733 10.8 34.2667 11.12 33.6H14.34C13.8733 35.0267 13.0533 36.14 11.88 36.94C10.72 37.7267 9.35333 38.12 7.78 38.12C6.44667 38.12 5.24 37.82 4.16 37.22C3.09333 36.6067 2.24667 35.76 1.62 34.68C1.00667 33.6 0.7 32.3733 0.7 31ZM28.3116 24.04V38H25.5116V32.06H19.5316V38H16.7316V24.04H19.5316V29.78H25.5116V24.04H28.3116Z" fill="white"/>
</svg>
